<svg xmlns="http://www.w3.org/2000/svg" viewBox="0 0 1200 500" width="100%" height="100%">
  <defs>
    <marker id="arrow" viewBox="0 0 10 10" refX="8" refY="5" markerWidth="6" markerHeight="6" orient="auto-start-reverse">
      <path d="M 0 0 L 10 5 L 0 10 z" fill="#64748b" />
    </marker>

    <marker id="arrow-loop" viewBox="0 0 10 10" refX="7" refY="5" markerWidth="5" markerHeight="5" orient="auto-start-reverse">
      <path d="M 0 0 L 10 5 L 0 10 z" fill="#ea580c" />
    </marker>

    <marker id="arrow-dashed" viewBox="0 0 10 10" refX="8" refY="5" markerWidth="6" markerHeight="6" orient="auto-start-reverse">
      <path d="M 0 0 L 10 5 L 0 10 z" fill="#94a3b8" />
    </marker>

    <marker id="arrow-output" viewBox="0 0 10 10" refX="8" refY="5" markerWidth="8" markerHeight="8" orient="auto-start-reverse">
      <path d="M 0 0 L 10 5 L 0 10 z" fill="#94a3b8" />
    </marker>

    <g id="plug-icon-green">
      <circle cx="0" cy="0" r="11" fill="#ffffff" stroke="#86efac" stroke-width="1.5" />
      <g transform="scale(0.65) translate(0, 1)" fill="none" stroke="#166534" stroke-width="2" stroke-linecap="round" stroke-linejoin="round">
        <rect x="-4" y="-1" width="8" height="6" rx="1.5" />
        <line x1="-2" y1="-1" x2="-2" y2="-5" />
        <line x1="2" y1="-1" x2="2" y2="-5" />
        <path d="M 0 5 V 8" />
      </g>
    </g>

    <g id="plug-icon-grey">
      <circle cx="0" cy="0" r="11" fill="#ffffff" stroke="#cbd5e1" stroke-width="1.5" />
      <g transform="scale(0.65) translate(0, 1)" fill="none" stroke="#475569" stroke-width="2" stroke-linecap="round" stroke-linejoin="round">
        <rect x="-4" y="-1" width="8" height="6" rx="1.5" />
        <line x1="-2" y1="-1" x2="-2" y2="-5" />
        <line x1="2" y1="-1" x2="2" y2="-5" />
        <path d="M 0 5 V 8" />
      </g>
    </g>

    <filter id="shadow" x="-10%" y="-10%" width="120%" height="120%">
      <feDropShadow dx="0" dy="3" stdDeviation="3" flood-opacity="0.08" flood-color="#000000" />
    </filter>
  </defs>

  <rect width="100%" height="100%" fill="#ffffff" />

  <rect x="30" y="10" width="240" height="470" rx="16" fill="#f8fafc" stroke="#cbd5e1" stroke-width="2" stroke-dasharray="6,4" />
  <rect x="290" y="10" width="660" height="470" rx="16" fill="#f0f9ff" stroke="#bae6fd" stroke-width="2" stroke-dasharray="6,4" />
  <rect x="970" y="10" width="200" height="470" rx="16" fill="#fff7ed" stroke="#fed7aa" stroke-width="2" stroke-dasharray="6,4" />

  <text x="150" y="40" font-family="system-ui, sans-serif" font-size="18" font-weight="700" fill="#475569" text-anchor="middle">Inputs</text>
  <text x="620" y="40" font-family="system-ui, sans-serif" font-size="18" font-weight="700" fill="#0284c7" text-anchor="middle">FriendlySplat Core</text>
  <text x="1070" y="40" font-family="system-ui, sans-serif" font-size="18" font-weight="700" fill="#ea580c" text-anchor="middle">Outputs</text>

  <g stroke="#64748b" stroke-width="2" fill="none" marker-end="url(#arrow)">
    <line x1="490" y1="115" x2="532" y2="115" />
    <line x1="620" y1="380" x2="620" y2="402" />
  </g>

  <g stroke="#ea580c" stroke-width="3.5" fill="none" marker-end="url(#arrow-loop)">
    <line x1="700" y1="115" x2="742" y2="115" />
    <line x1="830" y1="140" x2="830" y2="162" />
    <line x1="830" y1="220" x2="830" y2="242" />
    <line x1="830" y1="300" x2="830" y2="322" />
    <line x1="750" y1="355" x2="708" y2="355" />
    <line x1="540" y1="355" x2="498" y2="355" />
    <line x1="410" y1="330" x2="410" y2="228" />
  </g>

  <path d="M 410 170 L 410 160 Q 410 155 420 155 L 610 155 Q 620 155 620 148" stroke="#ea580c" stroke-width="3.5" fill="none" marker-end="url(#arrow-loop)" />

  <g stroke="#64748b" stroke-width="2.5" fill="none">
    <line x1="700" y1="275" x2="750" y2="275" />
  </g>

  <g stroke="#94a3b8" stroke-width="1.5" stroke-dasharray="5,5" fill="none" marker-end="url(#arrow-dashed)">
    <path d="M 240 115 C 275 115 295 115 322 115" />
    <path d="M 240 195 C 275 195 295 115 322 115" />
    <line x1="240" y1="275" x2="532" y2="275" />
    <path d="M 240 355 L 280 355 Q 295 355 295 340 L 295 330 Q 295 315 310 315 L 765 315 Q 780 315 780 308" />
  </g>

  <line x1="910" y1="235" x2="975" y2="235" stroke="#94a3b8" stroke-width="3" stroke-dasharray="8,6" fill="none" marker-end="url(#arrow-output)" />

  <g filter="url(#shadow)">
    <rect x="555" y="185" width="130" height="30" rx="15" fill="#fff7ed" stroke="#fb923c" stroke-width="2" stroke-dasharray="4,3" />
  </g>
  <text x="620" y="205" font-family="system-ui, sans-serif" font-size="14" font-weight="700" fill="#ea580c" text-anchor="middle">Training Loop</text>

  <g filter="url(#shadow)">
    <rect x="60" y="90" width="180" height="50" rx="8" fill="#f1f5f9" stroke="#cbd5e1" stroke-width="1.5" />
    <rect x="60" y="170" width="180" height="50" rx="8" fill="#f1f5f9" stroke="#cbd5e1" stroke-width="1.5" />
    <rect x="60" y="250" width="180" height="50" rx="8" fill="#f1f5f9" stroke="#cbd5e1" stroke-width="1.5" />
    <rect x="60" y="330" width="180" height="50" rx="8" fill="#f1f5f9" stroke="#cbd5e1" stroke-width="1.5" />
  </g>
  <text x="150" y="120" font-family="system-ui, sans-serif" font-size="14" font-weight="600" fill="#334155" text-anchor="middle">Posed RGB Images</text>
  <text x="150" y="200" font-family="system-ui, sans-serif" font-size="14" font-weight="600" fill="#334155" text-anchor="middle">Lidar / SfM Points</text>
  <text x="150" y="280" font-family="system-ui, sans-serif" font-size="14" font-weight="600" fill="#334155" text-anchor="middle">Depth / Normal</text>
  <text x="150" y="352" font-family="system-ui, sans-serif" font-size="14" font-weight="600" fill="#334155" text-anchor="middle">Sky Mask /</text>
  <text x="150" y="368" font-family="system-ui, sans-serif" font-size="14" font-weight="600" fill="#334155" text-anchor="middle">Dynamic Mask</text>

  <use href="#plug-icon-grey" x="240" y="250" />
  <use href="#plug-icon-grey" x="240" y="330" />

  <g filter="url(#shadow)">
    <rect x="330" y="90" width="160" height="50" rx="8" fill="#dbeafe" stroke="#93c5fd" stroke-width="1.5" />
    <rect x="540" y="90" width="160" height="50" rx="8" fill="#dbeafe" stroke="#93c5fd" stroke-width="1.5" />
    <rect x="750" y="90" width="160" height="50" rx="8" fill="#dbeafe" stroke="#93c5fd" stroke-width="1.5" />
    <rect x="750" y="250" width="160" height="50" rx="8" fill="#dbeafe" stroke="#93c5fd" stroke-width="1.5" />
    <rect x="750" y="330" width="160" height="50" rx="8" fill="#dbeafe" stroke="#93c5fd" stroke-width="1.5" />
    <rect x="540" y="330" width="160" height="50" rx="8" fill="#dbeafe" stroke="#93c5fd" stroke-width="1.5" />
    <rect x="750" y="170" width="160" height="50" rx="8" fill="#dcfce7" stroke="#86efac" stroke-width="1.5" />
    <rect x="540" y="250" width="160" height="50" rx="8" fill="#dcfce7" stroke="#86efac" stroke-width="1.5" />
    <rect x="330" y="170" width="160" height="50" rx="8" fill="#dcfce7" stroke="#86efac" stroke-width="1.5" />
    <rect x="330" y="330" width="160" height="50" rx="8" fill="#dcfce7" stroke="#86efac" stroke-width="1.5" />
    <rect x="540" y="410" width="160" height="50" rx="8" fill="#dcfce7" stroke="#86efac" stroke-width="1.5" />
  </g>

  <text x="410" y="120" font-family="system-ui, sans-serif" font-size="14" font-weight="700" fill="#1e40af" text-anchor="middle">Gaussian Init</text>
  <text x="620" y="120" font-family="system-ui, sans-serif" font-size="14" font-weight="700" fill="#1e40af" text-anchor="middle">GaussianModel</text>
  <text x="830" y="120" font-family="system-ui, sans-serif" font-size="14" font-weight="700" fill="#1e40af" text-anchor="middle">Differentiable Renderer</text>
  <text x="830" y="200" font-family="system-ui, sans-serif" font-size="14" font-weight="700" fill="#166534" text-anchor="middle">Post-processing</text>
  <text x="830" y="280" font-family="system-ui, sans-serif" font-size="14" font-weight="700" fill="#1e40af" text-anchor="middle">Loss Computation</text>
  <text x="620" y="272" font-family="system-ui, sans-serif" font-size="14" font-weight="700" fill="#166534" text-anchor="middle">Geometry Prior</text>
  <text x="620" y="288" font-family="system-ui, sans-serif" font-size="14" font-weight="700" fill="#166534" text-anchor="middle">Regularization</text>
  <text x="830" y="360" font-family="system-ui, sans-serif" font-size="14" font-weight="700" fill="#1e40af" text-anchor="middle">Optimizer Coordinator</text>
  <text x="620" y="360" font-family="system-ui, sans-serif" font-size="14" font-weight="700" fill="#1e40af" text-anchor="middle">Strategy Update</text>
  <text x="410" y="360" font-family="system-ui, sans-serif" font-size="14" font-weight="700" fill="#166534" text-anchor="middle">Pose Optimization</text>
  <text x="410" y="200" font-family="system-ui, sans-serif" font-size="14" font-weight="700" fill="#166534" text-anchor="middle">Pruning</text>
  <text x="620" y="440" font-family="system-ui, sans-serif" font-size="14" font-weight="700" fill="#166534" text-anchor="middle">Runtime Viewer</text>

  <use href="#plug-icon-green" x="910" y="170" />
  <use href="#plug-icon-green" x="700" y="250" />
  <use href="#plug-icon-green" x="490" y="330" />
  <use href="#plug-icon-green" x="490" y="170" />
  <use href="#plug-icon-green" x="700" y="410" />

  <g filter="url(#shadow)">
    <rect x="990" y="90" width="160" height="50" rx="8" fill="#ffedd5" stroke="#fdba74" stroke-width="1.5" />
    <rect x="990" y="170" width="160" height="50" rx="8" fill="#ffedd5" stroke="#fdba74" stroke-width="1.5" />
    <rect x="990" y="250" width="160" height="50" rx="8" fill="#ffedd5" stroke="#fdba74" stroke-width="1.5" />
    <rect x="990" y="330" width="160" height="50" rx="8" fill="#ffedd5" stroke="#fdba74" stroke-width="1.5" />
  </g>
  <text x="1070" y="120" font-family="system-ui, sans-serif" font-size="14" font-weight="700" fill="#9a3412" text-anchor="middle">Checkpoints</text>
  <text x="1070" y="200" font-family="system-ui, sans-serif" font-size="14" font-weight="700" fill="#9a3412" text-anchor="middle">PLY / Splat / Sog</text>
  <text x="1070" y="280" font-family="system-ui, sans-serif" font-size="14" font-weight="700" fill="#9a3412" text-anchor="middle">Meshes</text>
  <text x="1070" y="360" font-family="system-ui, sans-serif" font-size="14" font-weight="700" fill="#9a3412" text-anchor="middle">Evaluation Metrics</text>

  <g transform="translate(60, 410)" filter="url(#shadow)">
    <rect x="0" y="0" width="180" height="50" rx="8" fill="#ffffff" stroke="#cbd5e1" stroke-width="1.5" />
    <text x="90" y="18" font-family="system-ui, sans-serif" font-size="12" font-weight="700" fill="#475569" text-anchor="middle">Legend</text>
    <g transform="translate(35, 34)">
      <use href="#plug-icon-green" x="0" y="0" />
      <text x="22" y="4" font-family="system-ui, sans-serif" font-size="12" font-weight="600" fill="#475569" text-anchor="start">Optional Module</text>
    </g>
  </g>
</svg>
